<?xml version="1.0" encoding="utf-8"?><!DOCTYPE svg PUBLIC "-//W3C//DTD SVG 1.1//EN" "http://www.w3.org/Graphics/SVG/1.1/DTD/svg11.dtd"><svg xmlns="http://www.w3.org/2000/svg" width="175" height="50" viewBox="0 0 175 50"><g><g><path fill="#fff" d="M43.3 21.6v7.8h9.02v-7.8h2.44v18.65h-2.44v-8.74h-9.02v8.74h-2.41v-18.65h2.41z"/><path fill="#fff" d="M70.32 33.45c0 4.95-3.43 7.11-6.67 7.11-3.62 0-6.42-2.66-6.42-6.89 0-4.48 2.93-7.11 6.64-7.11 3.85 0 6.45 2.79 6.45 6.89zm-10.62.13c0 2.94 1.69 5.15 4.07 5.15 2.32 0 4.07-2.19 4.07-5.2 0-2.27-1.14-5.15-4.01-5.15s-4.13 2.66-4.13 5.2z"/><path fill="#fff" d="M72.74 30.49c0-1.38-.03-2.52-.11-3.62h2.13l.11 2.16h.08c.75-1.27 1.99-2.46 4.21-2.46 1.83 0 3.21 1.1 3.79 2.68h.05c.42-.75.94-1.33 1.5-1.74.8-.61 1.69-.94 2.96-.94 1.77 0 4.4 1.16 4.4 5.81v7.89h-2.38v-7.58c0-2.57-.94-4.12-2.91-4.12-1.38 0-2.46 1.02-2.88 2.21-.11.33-.19.77-.19 1.22v8.27h-2.38v-8.02c0-2.13-.94-3.68-2.8-3.68-1.52 0-2.63 1.22-3.01 2.44-.14.36-.19.77-.19 1.19v8.08h-2.38v-9.79z"/><path fill="#fff" d="M96.6 33.88c.06 3.36 2.2 4.74 4.69 4.74 1.78 0 2.85-.31 3.78-.71l.42 1.78c-.88.39-2.37.87-4.54.87-4.2 0-6.72-2.79-6.72-6.91s2.43-7.37 6.41-7.37c4.46 0 5.65 3.92 5.65 6.44 0 .51-.06.9-.09 1.16h-9.6zm7.28-1.78c.03-1.58-.65-4.04-3.44-4.04-2.51 0-3.61 2.31-3.81 4.04h7.25z"/><path fill="#fff" d="M111.86 34.27l-1.98 5.98h-2.54l6.47-19.02h2.96l6.49 19.02h-2.63l-2.03-5.98h-6.74zm6.24-1.92l-1.86-5.48c-.42-1.24-.7-2.37-.99-3.47h-.06c-.28 1.13-.59 2.29-.96 3.44l-1.86 5.5 5.73.01z"/><path fill="#fff" d="M125.71 26.59l1.81 6.94c.4 1.53.76 2.94 1.02 4.35h.09c.31-1.38.76-2.85 1.21-4.35l2.23-6.94h2.09l2.12 6.83c.51 1.64.9 3.08 1.21 4.46h.09c.22-1.38.59-2.82 1.05-4.43l1.94-6.86h2.46l-4.4 13.66h-2.26l-2.09-6.52c-.48-1.52-.87-2.88-1.21-4.49h-.07c-.34 1.64-.76 3.05-1.24 4.52l-2.2 6.49h-2.26l-4.12-13.66h2.53z"/><path fill="#fff" d="M154.33 36.98c0 1.19.05 2.34.23 3.27h-2.26l-.2-1.72h-.08c-.77 1.07-2.23 2.03-4.18 2.03-2.77 0-4.18-1.95-4.18-3.92 0-3.3 2.94-5.11 8.21-5.08v-.28c0-1.13-.31-3.16-3.1-3.16-1.27 0-2.6.4-3.56 1.02l-.56-1.64c1.13-.73 2.77-1.21 4.49-1.21 4.18 0 5.19 2.85 5.19 5.59v5.1zm-2.4-3.7c-2.71-.06-5.78.42-5.78 3.08 0 1.61 1.07 2.37 2.34 2.37 1.78 0 2.9-1.13 3.3-2.29.09-.26.14-.54.14-.79v-2.37z"/><path fill="#fff" d="M158.36 26.59l2.99 8.07c.31.9.65 1.98.88 2.79h.06c.25-.82.54-1.86.88-2.85l2.71-8.02h2.62l-3.73 9.74c-1.56 4.11-2.81 6.55-4.69 8.18-1.21 1.07-2.43 1.5-3.05 1.61l-.62-2.09c.62-.2 1.44-.59 2.17-1.21.68-.54 1.52-1.49 2.09-2.77.11-.26.2-.45.2-.59 0-.14-.05-.34-.17-.65l-5.05-12.22 2.71.01z"/><path fill="#fff" d="M174.27 28.07c0 1.01-.81 1.8-1.83 1.8s-1.84-.8-1.84-1.8.82-1.79 1.86-1.79c1 0 1.81.78 1.81 1.79zm-3.22 0c0 .8.6 1.43 1.4 1.43.77.01 1.36-.63 1.36-1.42 0-.8-.59-1.44-1.39-1.44-.77 0-1.37.64-1.37 1.43zm1.1.93h-.41v-1.79c.17-.02.4-.06.69-.06.34 0 .49.06.61.14.11.08.19.21.19.38 0 .22-.16.36-.37.43v.02c.17.05.26.2.32.44.06.27.1.37.13.44h-.44c-.05-.07-.09-.22-.14-.44-.04-.19-.14-.27-.37-.27h-.2v.71h-.01zm.02-1.01h.2c.23 0 .41-.08.41-.26 0-.16-.12-.27-.38-.27l-.23.02v.51z"/></g><g fill="#fff"><path d="M9.21 27.5c-.1-1.83.88-3.37 2.17-3.46-.76.51-1.27 1.85-1.18 3.4.08 1.56.73 2.86 1.56 3.27v.02c-1.3.05-2.45-1.39-2.55-3.23zM25.35 12.28h-15.83l-9.35 11.03 3.29-.23v11.94l-2.51.37s-1.21.23-.91 1.51c.27.94 1.22.94 1.22.94l2.2-.36v3.17l15.75 2.85 12.38-2.82-.02-17.34 3.39-.31-9.61-10.75zm-3.2 13.13l3.43-.32v4.54l-3.46.46.03-4.68zm-17.53 14.37v-2.49l6.82-1.12s1.18.01 1.08-1.31c-.08-1.18-1.33-.97-1.33-.97l-6.57.98v-12.1l6.94-8.2 7.65 8.56v19.3l-14.59-2.65zm17.5-3.55l.01-4.69 3.45-.46.02 4.54-3.48.61zm7.72-1.37l-2.85.5v-4.49l2.85-.41v4.4zm-2.85-5.42v-4.5l2.85-.28.01 4.4-2.86.38zM14.76 23.46c-.8-.93-1.9-1.53-3.12-1.53h-.19c-1.2.07-2.25.72-2.98 1.67-.73.96-1.16 2.23-1.16 3.62l.01.35c.08 1.43.6 2.71 1.4 3.64.8.93 1.9 1.53 3.12 1.53l.19-.01c1.2-.06 2.25-.71 2.98-1.66.73-.96 1.17-2.23 1.17-3.62l-.01-.35c-.09-1.42-.61-2.7-1.41-3.64zm-.46 7.08c-.61.79-1.42 1.27-2.33 1.31h-.15c-.92 0-1.78-.45-2.44-1.22-.67-.77-1.12-1.87-1.18-3.11l-.01-.31c0-1.2.38-2.29.98-3.08.61-.79 1.42-1.27 2.33-1.31h.15c.91 0 1.78.45 2.44 1.22.67.77 1.12 1.87 1.19 3.11l.01.31c-.01 1.2-.39 2.29-.99 3.08zM10.21 27.43c-.08-1.55.42-2.89 1.18-3.4-1.3.09-2.27 1.63-2.17 3.46.1 1.85 1.24 3.29 2.55 3.22v-.01c-.83-.41-1.48-1.71-1.56-3.27z"/></g></g></svg>