<svg xmlns="http://www.w3.org/2000/svg" viewBox="0 0 1000 172.7"><path d="M610.1 85.7c-14.4-10-11.9-30.6 1-48.2 15.5-21 36.1-31 49.4-18.3 9.8 9.3 7.1 34-6.6 51-.5.7-1.1 1.3-1.7 2 1.9-1.9 3.7-3.9 5.4-6.1 18.2-22.6 21.6-50.1 7.7-61.4-14-11.3-40.1-2.1-58.3 20.6-18.3 22.6-21.7 50.1-7.7 61.4 8 6.4 19.9 6.2 32.1.6-8.1 3-15.6 2.4-21.3-1.6z"/><path fill="#FF5200" d="M1 57.2c13.6 5 29.5 7.5 47.5 7.5 26.7 0 39.2-1.6 39.2-8.2 0-6.2-10.1-6.7-31.4-7.3h-17c-25.2 0-37.5-2-37.5-15.7 0-13.9 15.4-18.8 47.1-18.8 17.7 0 32.9 2.4 45.6 6.1v9.7l-3-.8c-15-3.7-29.2-5.2-43.3-5.2-25.4 0-38.1 2.8-38.1 8.6 0 5.6 9.6 6.1 29.2 6.1h16.3c27.1 0 40.4 3.2 40.4 16.7 0 15.3-15.5 18.3-47.1 18.3-18.7 0-34.7-2.3-48.1-7.2v-9.8zm207.1-22.5c0 12.4-6.1 18-18.8 18-1 0-2.2 0-3.4-.1h-71v19.8h-8.3V16.9h81c13.7 0 20.5 5.5 20.5 17.8zm-8.2-.2c0-5.2-3.3-7.3-10.4-7.3h-74.7v15.1h72.1c8.6 0 13-1.2 13-7.8zm17.6-17.6h8.5v55.5h-8.5V16.9zM291.4 75c-19.3 0-34-4.1-41.4-7.8-9.6-4.8-14.7-13.1-14.7-22.5 0-19.4 18.2-31.3 53.9-31.3 19 0 34.4 3.2 45.9 9.3V33c-10-4.9-25.3-8.9-46.1-8.9-29.8 0-45 8-45 20.2 0 5.6 2.8 9.9 8.4 13.1 5.6 3.2 18.5 7 37 7 17.3 0 32.5-2.3 45.7-7.4v9.8c-10.4 5.1-25.2 8.2-43.7 8.2zm52.7-58.1h95.3v9.9h-87.1v12.6h87.1v9.8h-87.1v13.4h87.1v9.8h-95.3V16.9z"/><path d="M562.6 72.4h-11.4l-29.6-48.9L491 72.4h-11.2l-34.6-55.5h11.3l29.1 48 29.8-48h12.8l29 48.1 28.9-48.1h11.2l-34.7 55.5zm122.7-55.5h70.8c7.6 0 12.7.7 15.4 2.6 4.6 3.2 6.7 8 6.7 14.9 0 9.3-4.1 15.5-12 17.5l18.1 20.4h-12.7l-16.4-18.8h-61.5v18.8h-8.4V16.9zm70.3 26.9c9.5 0 14.1-2.4 14.1-9.2 0-6.3-3.7-7.8-11.8-7.8h-64.2v16.9h61.9zm126.3 28.6l-46.3-28.5-34.5 13.7v14.8h-8.4V16.9h8.4v29.9l75.1-29.9h25.9l-55.3 22.5 55.9 33h-20.8zm22.9-15.2c13.6 5 29.5 7.5 47.5 7.5 26.7 0 39.2-1.6 39.2-8.2 0-6.2-10.1-6.7-31.4-7.3h-17c-25.2 0-37.6-2-37.6-15.7 0-13.9 15.4-18.8 47.1-18.8 17.7 0 33 2.4 45.6 6.1v9.7l-2.9-.8c-15-3.7-29.2-5.2-43.3-5.2-25.4 0-38.1 2.8-38.1 8.6 0 5.6 9.6 6.1 29.2 6.1h16.3c27.1 0 40.4 3.2 40.4 16.7 0 15.3-15.5 18.3-47.1 18.3-18.7 0-34.7-2.3-48.1-7.2v-9.8zm-58.9 64.6v-12.1h-4.6v-2.1H853v2.1h-4.7v12.1h-2.4zm8.7 0v-14.2h3.5l3.6 11.3 3.4-11.3h3.4v14.2h-2.2v-11.9l-3.7 11.9h-2.1l-3.8-12.1v12.1h-2.1z"/><path fill="#000100" d="M193.3 157.7L181 109.3h6.6l5.7 24.5c1.4 6 2.7 12.1 3.6 16.7h.1c.8-4.8 2.3-10.6 4-16.8l6.5-24.4h6.5l5.9 24.6c1.4 5.8 2.7 11.5 3.4 16.6h.1c1-5.3 2.4-10.7 3.9-16.7l6.4-24.4h6.4l-13.7 48.4h-6.5l-6.1-25.2c-1.5-6.2-2.5-10.9-3.2-15.8h-.1c-.9 4.8-1.9 9.6-3.7 15.8l-6.9 25.2h-6.6zm52.4-51.1h6.3v21.7h.1c1-1.8 2.6-3.4 4.5-4.5s4.1-1.8 6.5-1.8c4.7 0 12.1 2.9 12.1 14.9v20.7H269v-20c0-5.6-2.1-10.3-8-10.3-4.1 0-7.3 2.9-8.5 6.3-.4.9-.4 1.8-.4 3v21h-6.3v-51zm42.9 34.8c.1 8.5 5.6 12.1 11.9 12.1 4.5 0 7.3-.8 9.6-1.8l1.1 4.5c-2.2 1-6 2.2-11.6 2.2-10.7 0-17.1-7-17.1-17.5s6.2-18.8 16.3-18.8c11.4 0 14.4 10 14.4 16.4 0 1.3-.1 2.3-.2 3h-24.4zm18.5-4.5c.1-4-1.7-10.3-8.8-10.3-6.4 0-9.2 5.9-9.7 10.3h18.5zm13.3-3.2c0-4.1-.1-7.6-.3-10.8h5.5l.2 6.8h.3c1.6-4.7 5.4-7.6 9.6-7.6.7 0 1.2.1 1.8.2v6c-.6-.1-1.3-.2-2.2-.2-4.5 0-7.6 3.4-8.5 8.1-.1.9-.3 1.9-.3 2.9v18.5h-6.3v-23.9zm26.1 7.7c.1 8.5 5.6 12.1 11.9 12.1 4.5 0 7.3-.8 9.6-1.8l1.1 4.5c-2.2 1-6 2.2-11.6 2.2-10.7 0-17.1-7-17.1-17.5s6.2-18.8 16.3-18.8c11.4 0 14.4 10 14.4 16.4 0 1.3-.1 2.3-.2 3h-24.4zm18.5-4.5c.1-4-1.7-10.3-8.8-10.3-6.4 0-9.2 5.9-9.7 10.3H365zm35.7-27.7v48.4h-6.3v-48.4h6.3zm19.8 5.3h-14.7v-5.3h35.9v5.3h-14.8v43.1h-6.3v-43.1zm71.5 8.4c-.1 2.5-.3 5.3-.3 9.6v20.2c0 8-1.6 12.9-5 15.9-3.4 3.2-8.3 4.2-12.6 4.2-4.2 0-8.8-1-11.6-2.9l1.6-4.8c2.3 1.4 5.9 2.7 10.2 2.7 6.5 0 11.2-3.4 11.2-12.2v-3.9h-.1c-1.9 3.2-5.7 5.8-11.1 5.8-8.6 0-14.8-7.3-14.8-17 0-11.8 7.7-18.5 15.7-18.5 6 0 9.3 3.2 10.9 6h.1l.3-5.2h5.5zm-6.5 13.7c0-1.1-.1-2-.4-2.9-1.2-3.7-4.2-6.7-8.8-6.7-6 0-10.3 5.1-10.3 13.1 0 6.8 3.5 12.5 10.3 12.5 3.9 0 7.4-2.4 8.8-6.5.4-1.1.5-2.3.5-3.4v-6.1zm47.6 3.4c0 12.9-8.9 18.5-17.3 18.5-9.4 0-16.7-6.9-16.7-17.9 0-11.6 7.6-18.5 17.2-18.5 10.1 0 16.8 7.2 16.8 17.9zm-27.6.3c0 7.6 4.4 13.4 10.6 13.4 6 0 10.6-5.7 10.6-13.5 0-5.9-2.9-13.4-10.4-13.4s-10.8 6.9-10.8 13.5zm39 1.1c.1 8.5 5.6 12.1 11.9 12.1 4.5 0 7.3-.8 9.6-1.8l1.1 4.5c-2.2 1-6 2.2-11.6 2.2-10.7 0-17.1-7-17.1-17.5s6.2-18.8 16.3-18.8c11.4 0 14.4 10 14.4 16.4 0 1.3-.1 2.3-.2 3h-24.4zm18.5-4.5c.1-4-1.7-10.3-8.8-10.3-6.4 0-9.2 5.9-9.7 10.3H563zm12.2 14.3c1.9 1.2 5.2 2.5 8.3 2.5 4.6 0 6.8-2.3 6.8-5.2 0-3-1.8-4.7-6.5-6.4-6.2-2.2-9.2-5.7-9.2-9.8 0-5.6 4.5-10.2 12-10.2 3.5 0 6.6 1 8.6 2.2l-1.6 4.6c-1.4-.9-3.9-2-7.1-2-3.7 0-5.8 2.2-5.8 4.7 0 2.9 2.1 4.2 6.6 5.9 6 2.3 9.1 5.3 9.1 10.5 0 6.1-4.7 10.4-13 10.4-3.8 0-7.3-.9-9.8-2.4l1.6-4.8zm52.2-38.3v10h9.1v4.8h-9.1v18.8c0 4.3 1.2 6.8 4.7 6.8 1.7 0 2.9-.2 3.7-.4l.3 4.7c-1.2.5-3.2.9-5.6.9-2.9 0-5.3-.9-6.8-2.7-1.8-1.9-2.4-5-2.4-9.1v-19h-5.4v-4.8h5.4v-8.3l6.1-1.7zm46.3 27.1c0 12.9-8.9 18.5-17.3 18.5-9.4 0-16.7-6.9-16.7-17.9 0-11.6 7.6-18.5 17.2-18.5 10 0 16.8 7.2 16.8 17.9zm-27.6.3c0 7.6 4.4 13.4 10.6 13.4 6 0 10.6-5.7 10.6-13.5 0-5.9-2.9-13.4-10.4-13.4-7.6 0-10.8 6.9-10.8 13.5zm53.3-17.4l4.6 17.7c1 3.9 1.9 7.5 2.6 11.1h.2c.8-3.5 1.9-7.3 3.1-11l5.7-17.7h5.3l5.4 17.4c1.3 4.2 2.3 7.8 3.1 11.3h.2c.6-3.5 1.5-7.2 2.7-11.3l5-17.5h6.3l-11.2 34.8h-5.8l-5.3-16.6c-1.2-3.9-2.2-7.3-3.1-11.4h-.1c-.9 4.2-1.9 7.8-3.2 11.5l-5.6 16.5h-5.8L693 122.9h6.4zM780 140c0 12.9-8.9 18.5-17.3 18.5-9.4 0-16.7-6.9-16.7-17.9 0-11.6 7.6-18.5 17.2-18.5 10 0 16.8 7.2 16.8 17.9zm-27.6.3c0 7.6 4.4 13.4 10.6 13.4 6 0 10.6-5.7 10.6-13.5 0-5.9-2.9-13.4-10.4-13.4-7.6 0-10.8 6.9-10.8 13.5zm35-6.6c0-4.1-.1-7.6-.3-10.8h5.5l.2 6.8h.3c1.6-4.7 5.4-7.6 9.6-7.6.7 0 1.2.1 1.8.2v6c-.6-.1-1.3-.2-2.2-.2-4.5 0-7.6 3.4-8.5 8.1-.1.9-.3 1.9-.3 2.9v18.5h-6.3v-23.9zm29.1 5.1h.1c.9-1.2 2.1-2.7 3.1-4l10.2-12h7.6l-13.4 14.3 15.3 20.5h-7.7l-12-16.7-3.2 3.6v13.1h-6.2v-51h6.2v32.2zm26.8 15.1c0-2.7 1.8-4.5 4.3-4.5s4.2 1.9 4.2 4.5-1.7 4.5-4.3 4.5c-2.5 0-4.2-1.9-4.2-4.5z"/></svg>