<?xml version="1.0" encoding="utf-8"?>
<!-- Generator: Adobe Illustrator 17.1.0, SVG Export Plug-In . SVG Version: 6.00 Build 0)  -->
<!DOCTYPE svg PUBLIC "-//W3C//DTD SVG 1.1//EN" "http://www.w3.org/Graphics/SVG/1.1/DTD/svg11.dtd">
<svg version="1.1" id="Layer_1" xmlns="http://www.w3.org/2000/svg" xmlns:xlink="http://www.w3.org/1999/xlink" x="0px" y="0px"
	 viewBox="0 0 248 73.3" enable-background="new 0 0 248 73.3" xml:space="preserve">
<path fill="#F26322" d="M24.4,54.4c0-0.7-0.5-1-0.8-1.1c-0.7-0.4-1.9-1.1-1.9-1.1c-0.3-0.2-0.6-0.4-1.2,0c-0.1,0.1-1.5,0.9-2,1.1
	c-0.5,0.3-0.8,0.7-0.8,1.4v2.2c0,0.7,0.5,1,0.8,1.1c0.7,0.4,1.9,1.1,1.9,1.1c0.3,0.2,0.6,0.4,1.2,0c0.1-0.1,1.5-0.9,2-1.1
	c0.5-0.3,0.8-0.5,0.8-1.1V54.4z"/>
<path fill="#F26322" d="M24.4,45.1c0-0.7-0.5-1-0.8-1.1c-0.7-0.4-1.9-1.1-1.9-1.1c-0.3-0.2-0.6-0.4-1.2,0c-0.1,0.1-1.5,0.9-2,1.1
	c-0.5,0.3-0.8,0.7-0.8,1.4v2.2c0,0.7,0.5,1,0.8,1.1c0.7,0.4,1.9,1.1,1.9,1.1c0.3,0.2,0.6,0.4,1.2,0c0.1-0.1,1.5-0.9,2-1.1
	c0.5-0.3,0.8-0.5,0.8-1.1V45.1z"/>
<path fill="#F26322" d="M37.7,45.1c0-0.7-0.5-1-0.8-1.1c-0.7-0.4-1.9-1.1-1.9-1.1c-0.3-0.2-0.6-0.4-1.2,0c-0.1,0.1-1.5,0.9-2,1.1
	c-0.5,0.3-0.8,0.7-0.8,1.4v2.2c0,0.7,0.5,1,0.8,1.1c0.7,0.4,1.9,1.1,1.9,1.1c0.3,0.2,0.6,0.4,1.2,0c0.1-0.1,1.5-0.9,2-1.1
	c0.5-0.3,0.8-0.5,0.8-1.1V45.1z"/>
<path fill="#F26322" d="M37.7,35.9c0-0.7-0.5-1-0.8-1.1c-0.7-0.4-1.9-1.1-1.9-1.1c-0.3-0.2-0.6-0.4-1.2,0c-0.1,0.1-1.5,0.9-2,1.1
	c-0.5,0.3-0.8,0.7-0.8,1.4v2.2c0,0.7,0.5,1,0.8,1.1c0.7,0.4,1.9,1.1,1.9,1.1c0.3,0.2,0.6,0.4,1.2,0c0.1-0.1,1.5-0.9,2-1.1
	c0.5-0.3,0.8-0.5,0.8-1.1V35.9z"/>
<path fill="#F26322" d="M37.7,11.5c0-0.7-0.5-1-0.8-1.1C36.3,10,35.1,9.3,35,9.2c-0.3-0.2-0.6-0.4-1.2,0c-0.1,0.1-1.5,0.9-2,1.1
	c-0.5,0.3-0.8,0.7-0.8,1.4V14c0,0.7,0.5,1,0.8,1.1c0.7,0.4,1.9,1.1,1.9,1.1c0.3,0.2,0.6,0.4,1.2,0c0.1-0.1,1.5-0.9,2-1.1
	c0.5-0.3,0.8-0.5,0.8-1.1V11.5z"/>
<path fill="#F26322" d="M37.7,20.7c0-0.7-0.5-1-0.8-1.1c-0.7-0.4-1.9-1.1-1.9-1.1c-0.3-0.2-0.6-0.4-1.2,0c-0.1,0.1-1.5,0.9-2,1.1
	c-0.5,0.3-0.8,0.7-0.8,1.4v7.6c0,0.7,0.5,1,0.8,1.1c0.7,0.4,1.9,1.1,1.9,1.1c0.3,0.2,0.6,0.4,1.2,0c0.1-0.1,1.5-0.9,2-1.1
	c0.5-0.3,0.8-0.5,0.8-1.1V20.7z"/>
<path fill="#F26322" d="M24.4,35.9c0-0.7-0.5-1-0.8-1.1c-0.7-0.4-1.9-1.1-1.9-1.1c-0.3-0.2-0.6-0.4-1.2,0c-0.1,0.1-1.5,0.9-2,1.1
	c-0.5,0.3-0.8,0.7-0.8,1.4v2.2c0,0.7,0.5,1,0.8,1.1c0.7,0.4,1.9,1.1,1.9,1.1c0.3,0.2,0.6,0.4,1.2,0c0.1-0.1,1.5-0.9,2-1.1
	c0.5-0.3,0.8-0.5,0.8-1.1V35.9z"/>
<path fill="#231F20" d="M65.9,27.5l-0.6-3.6c-0.1-0.6-0.3-0.8-0.5-0.9c-0.6-0.3-1.8-0.7-4-0.7c-4.4,0-6.5,1.9-6.5,4.9
	c0,3.5,3.1,4.6,6.5,5.6c4.3,1.3,9.1,2.7,9.1,9.1c0,6.6-5.2,9-11.3,9c-3.9,0-7.6-1-8.9-1.6v-7h2.9l0.8,3.7c0.1,0.6,0.3,0.7,0.9,0.9
	c0.6,0.2,2.3,0.7,4.8,0.7c4.3,0,6.9-1.7,6.9-5.4c0-3.7-2.9-4.9-6.3-5.8c-4.3-1.3-9.3-2.4-9.3-8.8c0-6.1,4.8-8.7,10.7-8.7
	c3.6,0,6.5,0.9,7.9,1.5v7.2L65.9,27.5z"/>
<path fill="#231F20" d="M72,59.4v-2.3l1.7-0.3c0.6-0.1,0.7-0.2,0.7-0.9V32.5c0-0.5-0.1-0.8-0.6-0.9l-2.4-0.8l0.4-2.3h5.6l0.4,2.5
	l0.1,0c2.3-1.7,4.7-2.9,7.6-2.9c4.8,0,8,3.1,8,10.6c0,6.4-2.2,12.3-8.8,12.3c-2.4,0-4.5-0.6-6.5-2.3v7.4c0,0.7,0,0.8,0.7,0.9l4,0.3
	v2.3H72z M78.3,44.9c1.4,1.4,3.6,2.8,5.8,2.8c4,0,5.6-3.4,5.6-8.7c0-5.8-2.3-7.6-4.9-7.6c-2.7,0-5.3,1.7-6.5,2.6V44.9z"/>
<path fill="#231F20" d="M96.3,50.4V48l2.1-0.3c0.6-0.1,0.7-0.2,0.7-0.9V32.5c0-0.5-0.1-0.8-0.6-0.9l-2.4-0.8l0.4-2.3h5.6l0.4,2.9
	l0.1,0c1.4-1.6,3.5-3.4,6.4-3.4c1,0,2.3,0.2,3.1,0.4v6.4l-3-0.1l-0.5-2.9c0-0.3-0.1-0.4-0.5-0.4c-1.9,0-4.1,1.7-5.1,2.7v12.8
	c0,0.7,0,0.8,0.7,0.9l3.9,0.3v2.3H96.3z"/>
<path fill="#231F20" d="M132.8,49c-2.1,1.2-4.7,1.9-7.7,1.9c-7.7,0-10.2-5.1-10.2-11.4c0-7.8,4.3-11.4,9.7-11.4
	c5.2,0,8.8,2.8,8.8,10.2c0,0.6,0,1.4-0.1,2.1h-14.3c0.1,4.3,1.9,7.2,6.5,7.2c2.4,0,3.9-0.4,6.1-1.5L132.8,49z M129.4,37.4
	c-0.1-4.8-2.3-6.3-4.9-6.3c-2.9,0-5.2,1.5-5.6,6.3H129.4z"/>
<path fill="#231F20" d="M152.2,50.4l-0.3-2.8l-0.2,0c-2,1.9-4.2,3.4-7.5,3.4c-4.9,0-8-3.1-8-11c0-8.4,3.8-11.8,8.9-11.8
	c2.6,0,4.9,0.9,6.5,2v-8c0-0.4-0.2-0.7-0.6-0.9l-2.6-0.8l0.4-2.3h6.5v28.7c0,0.7,0,0.8,0.7,0.9l2.2,0.3v2.3H152.2z M151.5,33.6
	c-1.3-1.1-3.6-2.3-5.8-2.3c-4,0-5.6,3.5-5.6,8.6c0,5.9,2,7.8,5,7.8c2.5,0,4.6-1.7,6.4-3.5V33.6z"/>
<path fill="#231F20" d="M160.8,50.4V48l2.7-0.3c0.6,0,0.7-0.2,0.7-0.9V31.9c0-0.3,0-0.4-0.3-0.4h-3.1v-2.9h3.4v-3.2
	c0-5,2.5-7.5,7.8-7.5c3.5,0,6.4,0.9,6.4,5.1l-3.6,0.5c0-2.3-1-2.7-2.9-2.7c-3.1,0-3.7,1.7-3.7,4.5v2.9c0,0.3,0,0.4,0.3,0.4h7v2.9
	h-7.3v15.4c0,0.7,0,0.8,0.7,0.9l5,0.4v2.3H160.8z"/>
<path fill="#231F20" d="M191.5,50.4l-0.4-2.8l-0.1,0c-2,1.9-4.4,3.3-7.7,3.3c-5.3,0-6-3.7-6-5.8c0-4.3,2.6-6.3,7.7-6.7l5.7-0.5v-2.3
	c0-3.1-0.6-4.6-4.3-4.6c-2.6,0-4.5,0.1-4.5,3.3l-3.7-0.4c0-5.2,4.8-5.8,8.2-5.8c6,0,8.1,1.7,8.1,7.6v11.3c0,0.7,0,0.8,0.7,0.8
	l2.2,0.3v2.3H191.5z M190.8,40.6L186,41c-3.7,0.3-4.7,1.4-4.7,3.6c0,2.3,1,3.2,3,3.2c2.5,0,5.2-2,6.5-3.3V40.6z"/>
<path fill="#231F20" d="M212.9,34.6l-0.5-2.6c0-0.3-0.1-0.5-0.4-0.6c-0.6-0.2-1.9-0.5-3.3-0.5c-3.1,0-4.5,1.4-4.5,3.2
	c0,2.4,2.6,2.9,5.3,3.7c3.3,0.9,6.9,1.9,6.9,6.5c0,4.9-4.1,6.6-8.6,6.6c-3.4,0-6.9-1-7.7-1.4v-5.7l2.9,0.2l0.5,2.9
	c0,0.3,0.1,0.5,0.5,0.6c0.6,0.2,2,0.7,4.2,0.7c2.9,0,4.7-1.1,4.7-3.4c0-2.6-2.4-3.1-5.1-3.8c-3.3-0.8-7.1-1.6-7.1-6.3
	c0-4.9,4.1-6.6,8.5-6.6c3.1,0,5.8,0.8,6.7,1.2v5.5L212.9,34.6z"/>
<path fill="#231F20" d="M233.3,49.6c-1.7,0.7-3.7,1.3-5.9,1.3c-4.1,0-5.9-1.9-5.9-5.7V31.9c0-0.3,0-0.4-0.3-0.4h-3.1V29
	c3.3-0.4,4.3-1.7,4.8-6.1h2.5v5.2c0,0.3,0,0.4,0.3,0.4h6.3v2.9h-6.6V44c0,2.7,0.6,3.7,3.1,3.7c1.3,0,2.8-0.4,4-0.9L233.3,49.6z"/>
<rect x="6" y="-2.7" fill="none" width="239" height="71"/>
</svg>
